<svg width="131" height="105" viewBox="0 0 131 105" fill="none" xmlns="http://www.w3.org/2000/svg">
<path d="M1.34615 21.8154C2.31836 11.2113 10.8659 2.9442 21.4764 2.04463C53.4682 -0.667658 77.01 -0.681473 108.916 2.00319C119.75 2.91478 128.377 11.5012 129.227 22.34C130.92 43.9326 130.92 60.9292 129.227 82.5216C128.377 93.3611 119.749 101.948 108.914 102.859C77.1726 105.528 53.709 105.53 21.9671 102.86C11.1333 101.948 2.51456 93.3618 1.5807 82.5299C-0.296242 60.7589 -0.65669 43.6608 1.34615 21.8154Z" fill="url(#paint0_linear_940:2680)"/>
<path d="M83.6129 62.7332L77.194 56.3142C78.3611 53.98 79.1391 51.2569 79.1391 48.5337C79.1391 39.3915 71.7476 32 62.6054 32C53.4633 32 46.0718 39.3915 46.0718 48.5337C46.0718 57.6758 53.4633 65.0673 62.6054 65.0673C65.3286 65.0673 68.0518 64.2893 70.386 63.1222L76.805 69.5411C78.7501 71.4863 81.6678 71.4863 83.6129 69.5411C85.3636 67.596 85.3636 64.6783 83.6129 62.7332ZM62.6054 61.1771C55.603 61.1771 49.9621 55.5362 49.9621 48.5337C49.9621 41.5312 55.603 35.8903 62.6054 35.8903C69.6079 35.8903 75.2488 41.5312 75.2488 48.5337C75.2488 55.5362 69.6079 61.1771 62.6054 61.1771Z" fill="white"/>
<defs>
<linearGradient id="paint0_linear_940:2680" x1="130.497" y1="52.4308" x2="-2.5579e-06" y2="52.4309" gradientUnits="userSpaceOnUse">
<stop stop-color="#001C54"/>
<stop offset="1" stop-color="#001C54"/>
</linearGradient>
</defs>
</svg>
