<svg width="100" height="48" viewBox="0 0 131 105" fill="none" xmlns="http://www.w3.org/2000/svg">
<path d="M1.34615 21.8154C2.31836 11.2113 10.8659 2.9442 21.4764 2.04463C53.4682 -0.667658 77.01 -0.681473 108.916 2.00319C119.75 2.91478 128.377 11.5012 129.227 22.34C130.92 43.9326 130.92 60.9292 129.227 82.5216C128.377 93.3611 119.749 101.948 108.914 102.859C77.1726 105.528 53.709 105.53 21.9671 102.86C11.1333 101.948 2.51456 93.3618 1.5807 82.5299C-0.296242 60.7589 -0.65669 43.6608 1.34615 21.8154Z" fill="black" fill-opacity="0.7"/>
<path d="M83.6127 62.7332L77.1937 56.3142C78.3608 53.98 79.1389 51.2569 79.1389 48.5337C79.1389 39.3915 71.7474 32 62.6052 32C53.4631 32 46.0715 39.3915 46.0715 48.5337C46.0715 57.6758 53.4631 65.0673 62.6052 65.0673C65.3284 65.0673 68.0516 64.2893 70.3858 63.1222L76.8047 69.5411C78.7499 71.4863 81.6676 71.4863 83.6127 69.5411C85.3633 67.596 85.3633 64.6783 83.6127 62.7332ZM62.6052 61.1771C55.6027 61.1771 49.9618 55.5362 49.9618 48.5337C49.9618 41.5312 55.6027 35.8903 62.6052 35.8903C69.6077 35.8903 75.2486 41.5312 75.2486 48.5337C75.2486 55.5362 69.6077 61.1771 62.6052 61.1771Z" fill="white"/>
</svg>
